<?xml version="1.0" encoding="UTF-8" standalone="no" ?>
<!DOCTYPE svg PUBLIC "-//W3C//DTD SVG 1.1//EN" "http://www.w3.org/Graphics/SVG/1.1/DTD/svg11.dtd">
<svg xmlns="http://www.w3.org/2000/svg" xmlns:xlink="http://www.w3.org/1999/xlink" version="1.1" width="1200" height="628" viewBox="0 0 1200 628" xml:space="preserve">
<desc>Created with Fabric.js 5.2.4</desc>
<defs>
</defs>
<rect x="0" y="0" width="100%" height="100%" fill="transparent"></rect>
<g transform="matrix(1 0 0 1 600 314)" id="96a74475-8858-4b0a-8ef9-2c9ee3580c33"  >
<rect style="stroke: none; stroke-width: 1; stroke-dasharray: none; stroke-linecap: butt; stroke-dashoffset: 0; stroke-linejoin: miter; stroke-miterlimit: 4; fill: rgb(255,255,255); fill-rule: nonzero; opacity: 1; visibility: hidden;" vector-effect="non-scaling-stroke"  x="-600" y="-314" rx="0" ry="0" width="1200" height="628" />
</g>
<g transform="matrix(Infinity NaN NaN Infinity 0 0)" id="53846570-8876-47bc-b0a1-e4c7bb76dbe6"  >
</g>
<g transform="matrix(1.86 0 0 1.86 600 289.22)"  >
<path style="stroke: rgb(0,0,0); stroke-width: 0; stroke-dasharray: none; stroke-linecap: butt; stroke-dashoffset: 0; stroke-linejoin: miter; stroke-miterlimit: 4; fill: rgb(255,255,255); fill-rule: nonzero; opacity: 1;" vector-effect="non-scaling-stroke"  transform=" translate(-317.05, -135.68)" d="M 118.81 147.291 L 127.48 172.752 C 132.171 186.52100000000002 136.359 197.53 136.905 197.53 C 136.91394631259465 197.5296797908669 136.92247315801933 197.52612693860664 136.929 197.52 C 137.529 196.99 154.499 147.70800000000003 154.499 147.70800000000003 L 187.389 147.70800000000003 L 147.709 263.327 L 124.849 263.327 C 124.849 263.327 100.44900000000001 192.85500000000002 100.549 192.588 L 75.07900000000001 262.44 L 52.44900000000001 262.44 L 13.269000000000013 147.291 L 45.99900000000001 147.31199999999998 C 45.99900000000001 147.31199999999998 63.92800000000001 198.13199999999998 64.167 198.13199999999998 L 64.169 198.12999999999997 L 82.059 147.28899999999996 L 118.81 147.29099999999997 M 2.095 139.283 L 5.696 149.867 L 44.876 265.01599999999996 L 46.721 270.43999999999994 L 80.678 270.43999999999994 L 82.596 265.17999999999995 L 100.281 216.67999999999995 C 101.805 221.11399999999995 103.45200000000001 225.89299999999994 105.099 230.66699999999994 C 109.1564127293441 242.42782702826798 113.22007997070472 254.18649535788154 117.2899999999989 265.9430000000034 L 119.15400000000001 271.32699999999994 L 153.42200000000003 271.32699999999994 L 155.27600000000004 265.92499999999995 L 194.95600000000005 150.30699999999996 L 198.59300000000005 139.70799999999997 L 148.793 139.70799999999997 L 146.935 145.10399999999996 C 143.52559407043685 155.00382449667356 140.09358512161296 164.89585028973164 136.63900000000064 174.7800000000008 C 136.10496489405423 173.24507129270796 135.57596205267907 171.70839637226675 135.05200000000013 170.16999999999985 L 126.38300000000002 144.70999999999992 L 124.53700000000002 139.28899999999993 L 76.394 139.28899999999993 L 74.513 144.63499999999993 L 64.06 174.34099999999992 C 60.54276374412076 164.44821982244727 57.03742787512178 154.55121266321922 53.54399999999856 144.64999999999648 L 51.662000000000006 139.31599999999992 L 46.00500000000001 139.31199999999993 L 13.275000000000013 139.29099999999994 L 2.095000000000013 139.28299999999993 z M 625.349 146.843 L 625.2750000000001 177.148 C 625.2750000000001 177.148 592.6320000000001 177.04 576.037 177.04 C 570.5160000000001 177.04 566.769 177.054 566.592 177.08499999999998 C 563.735 177.60599999999997 561.912 183.688 562.723 186.356 C 563.121 187.707 566.116 192.11599999999999 569.3539999999999 196.167 C 572.583 200.219 577.895 206.849 581.1329999999999 210.89600000000002 C 589.4509999999999 221.27700000000002 590.5919999999999 223.32600000000002 591.3629999999999 229.287 C 592.6129999999999 238.97 588.035 249.447 579.535 256.357 C 571.014 263.28700000000003 571.389 263.336 508.152 263.336 L 505.375 263.336 C 466.914 263.325 446.574 263.007 443.613 262.348 C 438.353 261.158 429.97 254.318 407.822 233.068 C 399.855 225.43200000000002 392.511 218.746 392.134 218.744 C 392.124 218.744 392.12 218.751 392.12 218.762 L 391.858 263.34000000000003 L 355.96 263.182 L 355.738 148.202 L 435.8 148.202 C 459.92900000000003 149.073 476.259 173.112 473.009 188.442 C 472.273 191.92100000000002 470.392 196.96300000000002 468.829 199.642 C 465.618 205.142 457.448 212.202 450.817 215.233 C 448.368 216.34 446.368 217.63 446.368 218.09 C 446.368 219.8 454.429 227.738 457.448 228.999 C 460.02799999999996 230.078 467.53799999999995 230.31799999999998 500.659 230.31799999999998 L 511.26599999999996 230.32 C 544.559 230.32 542.8829999999999 230.07999999999998 545.4549999999999 224.579 C 547.256 220.75 545.887 218.46 533.2169999999999 204.18900000000002 C 517.1659999999998 188.21800000000002 518.8459999999999 180.568 518.7369999999999 174.918 C 518.5079999999998 168.14700000000002 523.8389999999998 146.85 551.5489999999999 146.85 L 625.3489999999998 146.843 M 410.28 199.962 C 425.65 199.962 428.77099999999996 199.724 432.041 198.303 C 443.082 193.502 443.672 179.324 433.082 173.03199999999998 C 430.762 171.65099999999998 427.781 171.42399999999998 411.121 171.33299999999997 L 391.842 171.23099999999997 C 392.002 171.37999999999997 391.781 198.80099999999996 391.781 198.80099999999996 C 391.781 198.80099999999996 396.61 199.96199999999996 410.28000000000003 199.96199999999996 M 633.369 138.84299999999996 L 551.549 138.84299999999996 C 535.516 138.84299999999996 526.033 145.16999999999996 520.904 150.47999999999996 C 512.554 159.11299999999997 510.592 169.98399999999995 510.742 175.10899999999995 C 510.75 175.53599999999994 510.74600000000004 175.97399999999996 510.74 176.43099999999995 C 510.668 184.75999999999996 511.892 194.18899999999996 527.4 209.67699999999996 C 530.462 213.12799999999996 535.5889999999999 218.91499999999996 537.531 221.79099999999997 C 533.2929999999999 222.31199999999995 522.5509999999999 222.31199999999995 511.26499999999993 222.31199999999995 L 506.47399999999993 222.31199999999995 L 500.6599999999999 222.30999999999995 C 480.7559999999999 222.30999999999995 463.9709999999999 222.25199999999995 460.5329999999999 221.57399999999996 C 460.0509999999999 221.26199999999994 459.3769999999999 220.71999999999994 458.6349999999999 220.07599999999996 C 465.5119999999999 215.84299999999996 472.46499999999986 209.27699999999996 475.73899999999986 203.66499999999996 C 477.72499999999985 200.25199999999995 479.91699999999986 194.42199999999997 480.8369999999999 190.09799999999996 C 482.8779999999999 180.47299999999996 479.51299999999986 168.86199999999997 471.8369999999999 159.02999999999994 C 462.8799999999999 147.55899999999994 449.8509999999999 140.69599999999994 436.0909999999999 140.19999999999993 L 435.9459999999999 140.19399999999993 L 347.7229999999999 140.19399999999993 L 347.7399999999999 148.21199999999993 L 347.9619999999999 263.1909999999999 L 347.9779999999999 271.13999999999993 L 355.9269999999999 271.17499999999995 L 391.82499999999993 271.33299999999997 L 399.8109999999999 271.36699999999996 L 399.8599999999999 263.37999999999994 L 400.0139999999999 236.67499999999995 C 400.7459999999999 237.36999999999995 401.5039999999999 238.09399999999997 402.2839999999999 238.83899999999994 C 426.51299999999986 262.07899999999995 434.64099999999985 268.51899999999995 441.8459999999999 270.14799999999997 C 443.8259999999999 270.58799999999997 447.0999999999999 271.32 505.3689999999999 271.33599999999996 L 508.1459999999999 271.33599999999996 C 539.6949999999999 271.33599999999996 555.5289999999999 271.33599999999996 564.9469999999999 270.42699999999996 C 575.7359999999999 269.38399999999996 579.2069999999999 266.93699999999995 584.4079999999999 262.7 L 584.5819999999999 262.55899999999997 C 595.2659999999998 253.87099999999998 600.9039999999999 240.72899999999998 599.2969999999999 228.25899999999996 C 598.2479999999999 220.14899999999994 596.1019999999999 216.77999999999997 587.3749999999999 205.89099999999996 L 584.7809999999998 202.65099999999995 C 581.7194287639506 198.82779046898494 578.6600949068742 195.00278981416506 575.6029999999981 191.1759999999996 C 573.6189999999998 188.69199999999995 572.0559999999998 186.48699999999997 571.1189999999998 185.04199999999997 C 572.3529999999998 185.039 573.9589999999998 185.03699999999998 576.0369999999998 185.03699999999998 C 592.4319999999998 185.03699999999998 624.9239999999998 185.14399999999998 625.2499999999998 185.146 L 633.2579999999998 185.171 L 633.2779999999998 177.16299999999998 L 633.3539999999998 146.856 L 633.3689999999998 138.843 z M 399.832 191.67 L 399.86899999999997 185.112 C 399.87899999999996 183.112 399.88899999999995 181.108 399.89 179.272 L 411.078 179.331 C 417.508 179.36499999999998 427.18199999999996 179.41899999999998 429.068 179.95399999999998 C 431.474 181.415 432.818 183.67499999999998 432.67199999999997 186.015 C 432.592 187.279 431.98999999999995 189.60299999999998 428.84999999999997 190.96499999999997 C 427.09999999999997 191.72599999999997 424.311 191.962 410.282 191.962 C 405.83 191.962 402.397 191.833 399.832 191.67 z M 283 146.371 L 323.291 262.291 L 290.46 262.44 L 285.01 245.03 L 226.31 244.559 L 221.13 261.99 L 188.63 261.649 L 228.41 146.42000000000002 L 283 146.371 M 256.599 163.366 C 256.51599999999996 163.699 251.45499999999998 177.586 246.37699999999998 191.47000000000003 C 241.25699999999998 205.47000000000003 236.11999999999998 219.47000000000003 236.04899999999998 219.57800000000003 L 236.04899999999998 219.57800000000003 C 236.18499999999997 219.53800000000004 254.36499999999998 219.49800000000002 266.017 219.49800000000002 C 271.46999999999997 219.49800000000002 275.492 219.508 275.567 219.526 L 275.568 219.531 L 275.568 219.52800000000002 L 275.567 219.526 C 275.363 219 256.658 164.043 256.599 163.366 L 256.59999999999997 163.36 L 256.599 163.366 M 288.687 138.365 L 282.994 138.371 L 228.40400000000002 138.422 L 222.70800000000003 138.428 L 220.84900000000002 143.814 L 181.06900000000002 259.043 L 177.44600000000003 269.536 L 188.54800000000003 269.651 L 221.04800000000003 269.992 L 227.08100000000002 270.055 L 228.8 264.273 L 232.26600000000002 252.61100000000002 L 279.12 252.98600000000002 L 282.82800000000003 264.83500000000004 L 284.593 270.47400000000005 L 290.5 270.44800000000004 L 323.33 270.29900000000004 L 334.524 270.24600000000004 L 330.847 259.67300000000006 L 290.556 143.75300000000004 L 288.68699999999995 138.36500000000004 z M 247.56400000000002 211.50900000000001 C 249.079 207.37900000000002 251.12000000000003 201.799 253.89100000000002 194.22000000000003 L 256.284 187.67500000000004 L 258.453 194.07100000000003 C 259.099 195.97700000000003 261.938 204.34200000000004 264.373 211.50000000000003 C 257.133 211.50000000000003 251.683 211.50100000000003 247.564 211.50900000000001 z M 296.58 8.012 L 296.58 36.612 L 239.3 36.612 L 239.3 124.083 L 205.15 124.083 L 205.15 36.54299999999999 L 138.29000000000002 36.73199999999999 C 130.23000000000002 36.73199999999999 129.15000000000003 43.151999999999994 129.15000000000003 45.611999999999995 C 129.15000000000003 48.632999999999996 131.12000000000003 51.651999999999994 141.94000000000003 65.35199999999999 C 148.96000000000004 74.25099999999999 155.41000000000003 83.13199999999999 156.26000000000002 85.07199999999999 C 160.9 95.75299999999999 154.9 112.392 143.97000000000003 119.15199999999999 C 136.18000000000004 123.96499999999999 137.51100000000002 124.08399999999999 79.66200000000002 124.08399999999999 L 8 124.08399999999999 L 8 91.953 L 105.9 91.953 L 108.79 89.943 C 110.74000000000001 88.584 111.87 86.714 112.30000000000001 84.15299999999999 C 112.9 80.47299999999998 112.59000000000002 79.993 100.50000000000001 66.374 C 86.21000000000001 50.272999999999996 84.70000000000002 47.333999999999996 85.44000000000001 37.05499999999999 C 86.28000000000002 25.324999999999992 96.74000000000001 8.283999999999992 115.02000000000001 8.283999999999992 L 296.58000000000004 8.011999999999992 M 304.58000000000004 -8.881784197001252e-15 L 296.56700000000006 0.012999999999991118 L 115.00700000000006 0.28299999999999115 C 104.54900000000006 0.28299999999999115 94.83600000000007 4.802999999999991 87.66500000000006 13.005999999999991 C 81.85100000000006 19.65699999999999 78.03500000000007 28.435999999999993 77.45900000000006 36.483999999999995 C 76.48600000000006 49.99499999999999 79.59600000000006 54.87799999999999 94.51500000000006 71.68599999999999 C 98.84500000000006 76.56299999999999 102.96200000000006 81.202 104.33600000000006 83.17099999999999 C 104.32148315833558 83.22511983280901 104.30344471416008 83.27823302954796 104.28200000000005 83.33 C 104.26700000000005 83.343 104.24400000000006 83.359 104.21200000000006 83.382 L 103.39000000000006 83.953 L 0 83.953 L 0 132.084 L 79.662 132.084 C 108.184 132.084 122.262 132.058 130.556 131.448 C 140.04600000000002 130.75400000000002 143.074 129.126 147.61 126.308 L 148.17600000000002 125.956 C 162.43800000000002 117.136 169.788 96.129 163.598 81.88300000000001 C 161.68800000000002 77.525 149.59500000000003 62.137000000000015 148.222 60.397000000000006 C 144.42600000000002 55.589000000000006 138.16 47.657000000000004 137.168 45.361000000000004 C 137.192 45.169000000000004 137.239 44.968 137.28900000000002 44.830000000000005 C 137.454 44.788000000000004 137.77 44.73100000000001 138.29000000000002 44.73100000000001 L 197.15000000000003 44.56400000000001 L 197.15000000000003 132.082 L 247.30000000000004 132.082 L 247.30000000000004 44.611 L 304.58000000000004 44.611 L 304.58000000000004 0 z M 389.64 8.941 L 429.82 125.161 L 397.05 124.981 L 391.73 107.571 L 333.291 107.31099999999999 L 328.07 124.082 L 294.701 124.082 L 334.44 8.941 L 389.64 8.941 M 342.829 82.562 L 382.63100000000003 82.512 L 382.63100000000003 82.513 C 382.76800000000003 82.513 363.28900000000004 25.312000000000005 363.15900000000005 25.272000000000006 C 363.01700000000005 25.267000000000007 342.38100000000003 82.56200000000001 342.82900000000006 82.56200000000001 M 395.34 0.941 L 328.741 0.941 L 326.882 6.332 L 287.141 121.47399999999999 L 283.47900000000004 132.083 L 333.96400000000006 132.083 L 335.71400000000006 126.46 L 339.17500000000007 115.339 L 385.80800000000005 115.54599999999999 L 389.40700000000004 127.31899999999999 L 391.129 132.94799999999998 L 397.016 132.98099999999997 L 429.78700000000003 133.16199999999998 L 441.08400000000006 133.224 L 437.3930000000001 122.54799999999999 L 397.2130000000001 6.325999999999993 L 395.34 0.941 z M 353.943 74.549 C 356.9199733767322 66.10183024280687 359.92465621865955 57.6644514881076 362.95699999999965 49.2370000000017 C 365.831047268159 57.66313108064172 368.6937165440768 66.0931387643746 371.54500000000155 74.52699999999724 L 353.94300000000004 74.54900000000002 z M 502.488 8.941 C 528.41 8.941 546.398 9.311 549.859 9.911000000000001 C 557.859 11.303 565.0880000000001 15.571000000000002 570.5070000000001 22.133000000000003 C 576.177 28.991000000000003 577.4780000000001 32.273 578.2180000000001 41.672000000000004 C 579.2790000000001 54.943000000000005 572.9680000000001 66.393 560.517 73.821 C 556.888 75.991 553.1600000000001 78.101 552.2280000000001 78.521 C 550.7980000000001 79.17 550.99 79.792 553.5480000000001 82.792 C 555.1960000000001 84.723 558.0580000000001 87.473 559.8980000000001 88.901 L 563.2570000000002 91.511 L 625.3370000000002 92.401 L 625.9460000000003 124.082 L 587.8840000000002 124.082 C 558.4460000000003 124.082 549.0270000000003 123.81099999999999 546.2630000000003 122.883 C 542.1340000000002 121.48299999999999 532.1970000000002 113.06299999999999 511.9930000000003 93.84299999999999 L 497.57300000000026 80.12199999999999 L 497.72500000000025 124.082 L 460.68 124.082 L 460.68 8.941 L 502.488 8.941 M 497.031 60.711000000000006 L 516.701 60.711000000000006 C 535.842 60.711000000000006 536.441 60.650000000000006 539.172 58.602000000000004 C 544.053 54.94200000000001 545.7810000000001 51.17100000000001 545.2620000000001 45.381 C 544.735 39.41 542.432 36.302 536.662 33.802 C 533.412 32.381 530.2810000000001 32.152 514.941 32.152 L 497.031 32.152 L 497.031 60.711 M 502.488 0.9409999999999954 L 452.689 0.9409999999999954 L 452.689 132.082 L 505.759 132.082 L 505.732 124.05499999999999 L 505.64200000000005 98.838 L 506.48400000000004 99.63799999999999 C 531.4680000000001 123.40899999999999 538.839 128.81099999999998 543.701 130.458 C 547.433 131.718 553.683 132.082 587.889 132.082 L 634.105 132.082 L 633.9490000000001 123.92899999999999 L 633.34 92.24799999999999 L 633.1940000000001 84.51499999999999 L 625.46 84.40399999999998 L 566.058 83.55299999999998 L 564.814 82.58499999999998 C 564.418 82.27499999999998 563.937 81.86699999999998 563.425 81.40499999999997 L 564.632 80.68799999999997 C 579.6339999999999 71.73499999999997 587.497 57.28099999999998 586.1999999999999 41.034999999999975 C 585.3369999999999 30.075999999999976 583.3799999999999 25.138999999999974 576.679 17.034999999999975 C 570.095 9.065999999999974 561.058 3.7369999999999752 551.232 2.0299999999999745 C 545.769 1.0829999999999744 518.3489999999999 0.9409999999999745 502.48799999999994 0.9409999999999745 z M 505.031 40.150999999999996 L 514.941 40.150999999999996 C 528.966 40.150999999999996 531.746 40.38399999999999 533.4590000000001 41.132 C 536.7090000000001 42.539 537.0390000000001 43.223 537.293 46.088 C 537.549 48.937 537.197 50.082 534.371 52.199 L 534.148 52.364999999999995 C 532.283 52.71099999999999 525.363 52.71099999999999 516.701 52.71099999999999 L 505.031 52.71099999999999 L 505.031 40.15099999999999 z" stroke-linecap="round" />
</g>
</svg>