<svg xmlns="http://www.w3.org/2000/svg" width="49" height="48" viewBox="0 0 33 33"><title>twitter</title><g fill="#ffffff" class="nc-icon-wrapper"><path d="M13.76 23.84c6.1 0 9.44-5.05 9.44-9.43q0-0.21-0.01-0.43a6.77 6.77 0 0 0 1.66-1.72 6.77 6.77 0 0 1-1.91 0.52 3.34 3.34 0 0 0 1.46-1.83 6.57 6.57 0 0 1-2.1 0.8 3.32 3.32 0 0 0-5.66 3.02 9.42 9.42 0 0 1-6.84-3.46 3.32 3.32 0 0 0 1.03 4.43 3.34 3.34 0 0 1-1.51-0.41v0.04a3.32 3.32 0 0 0 2.66 3.25 3.24 3.24 0 0 1-0.87 0.12 3.03 3.03 0 0 1-0.62-0.06 3.32 3.32 0 0 0 3.1 2.3 6.67 6.67 0 0 1-4.12 1.43 6.06 6.06 0 0 1-0.79-0.05 9.44 9.44 0 0 0 5.08 1.48"></path></g></svg>
